<svg width="80" height="15" viewBox="0 0 80 15" fill="none" xmlns="http://www.w3.org/2000/svg">
<g filter="url(#filter0_d_12_194)">
<path d="M6.08301 7.79688L1.76172 6.00488V4.90625L6.08301 3.11426V4.43262L3.40723 5.34082L3.0752 5.46289L3.40723 5.58008L6.08301 6.47363V7.79688Z" fill="#F61F3A"/>
<path d="M12.8701 2.50879H10.6777V8.5H9.30078V2.50879H7.1377V1.39062H12.8701V2.50879ZM14.0908 8.5L13.1436 3.2168H14.3838L14.7793 6.35645L14.8428 6.85938L14.9355 6.35645L15.5068 3.2168H16.415L16.9863 6.3418L17.0791 6.84473L17.1475 6.33203L17.5381 3.2168H18.7832L17.8359 8.5H16.6445L16.0635 5.67773L15.9512 5.14062L15.8438 5.67773L15.2822 8.5H14.0908ZM22.2695 8.59766C21.8626 8.59766 21.4932 8.53092 21.1611 8.39746C20.8291 8.264 20.5443 8.08171 20.3066 7.85059C20.069 7.62272 19.8851 7.35417 19.7549 7.04492C19.6279 6.73242 19.5645 6.39876 19.5645 6.04395V5.84863C19.5645 5.44499 19.6279 5.07715 19.7549 4.74512C19.8818 4.40983 20.0592 4.12174 20.2871 3.88086C20.515 3.63997 20.7852 3.4528 21.0977 3.31934C21.4102 3.18587 21.7503 3.11914 22.1182 3.11914C22.499 3.11914 22.8376 3.18262 23.1338 3.30957C23.4333 3.43327 23.6872 3.60905 23.8955 3.83691C24.1006 4.06478 24.2568 4.33984 24.3643 4.66211C24.4717 4.98112 24.5254 5.33431 24.5254 5.72168V6.29785H20.9414V6.3125C20.987 6.52409 21.0456 6.69499 21.1172 6.8252C21.1888 6.95215 21.2848 7.06771 21.4053 7.17188C21.529 7.2793 21.6706 7.3623 21.8301 7.4209C21.9896 7.47949 22.1637 7.50879 22.3525 7.50879C22.6195 7.50879 22.8783 7.45833 23.1289 7.35742C23.3796 7.25651 23.583 7.10514 23.7393 6.90332L24.418 7.63574C24.2454 7.87988 23.972 8.10124 23.5977 8.2998C23.2233 8.49837 22.7806 8.59766 22.2695 8.59766ZM22.1084 4.21777C21.9554 4.21777 21.8154 4.24544 21.6885 4.30078C21.5615 4.35286 21.4508 4.42936 21.3564 4.53027C21.2588 4.63118 21.1774 4.75163 21.1123 4.8916C21.0472 5.03158 20.9984 5.18783 20.9658 5.36035H23.1924V5.25293C23.1924 5.1097 23.1663 4.97461 23.1143 4.84766C23.0622 4.7207 22.9906 4.61003 22.8994 4.51562C22.8083 4.42448 22.696 4.35286 22.5625 4.30078C22.4323 4.24544 22.2809 4.21777 22.1084 4.21777ZM28.2754 8.59766C27.8685 8.59766 27.499 8.53092 27.167 8.39746C26.835 8.264 26.5501 8.08171 26.3125 7.85059C26.0749 7.62272 25.891 7.35417 25.7607 7.04492C25.6338 6.73242 25.5703 6.39876 25.5703 6.04395V5.84863C25.5703 5.44499 25.6338 5.07715 25.7607 4.74512C25.8877 4.40983 26.0651 4.12174 26.293 3.88086C26.5208 3.63997 26.791 3.4528 27.1035 3.31934C27.416 3.18587 27.7562 3.11914 28.124 3.11914C28.5049 3.11914 28.8434 3.18262 29.1396 3.30957C29.4391 3.43327 29.693 3.60905 29.9014 3.83691C30.1064 4.06478 30.2627 4.33984 30.3701 4.66211C30.4775 4.98112 30.5312 5.33431 30.5312 5.72168V6.29785H26.9473V6.3125C26.9928 6.52409 27.0514 6.69499 27.123 6.8252C27.1947 6.95215 27.2907 7.06771 27.4111 7.17188C27.5348 7.2793 27.6764 7.3623 27.8359 7.4209C27.9954 7.47949 28.1696 7.50879 28.3584 7.50879C28.6253 7.50879 28.8841 7.45833 29.1348 7.35742C29.3854 7.25651 29.5889 7.10514 29.7451 6.90332L30.4238 7.63574C30.2513 7.87988 29.9779 8.10124 29.6035 8.2998C29.2292 8.49837 28.7865 8.59766 28.2754 8.59766ZM28.1143 4.21777C27.9613 4.21777 27.8213 4.24544 27.6943 4.30078C27.5674 4.35286 27.4567 4.42936 27.3623 4.53027C27.2646 4.63118 27.1833 4.75163 27.1182 4.8916C27.0531 5.03158 27.0042 5.18783 26.9717 5.36035H29.1982V5.25293C29.1982 5.1097 29.1722 4.97461 29.1201 4.84766C29.068 4.7207 28.9964 4.61003 28.9053 4.51562C28.8141 4.42448 28.7018 4.35286 28.5684 4.30078C28.4382 4.24544 28.2868 4.21777 28.1143 4.21777ZM34.208 1.92285V3.2168H36.1807V4.21777H34.208V6.48828C34.208 6.68034 34.2292 6.84147 34.2715 6.97168C34.3171 7.09863 34.3805 7.19954 34.4619 7.27441C34.5433 7.35254 34.641 7.40788 34.7549 7.44043C34.8721 7.47298 35.0023 7.48926 35.1455 7.48926C35.2497 7.48926 35.3555 7.48438 35.4629 7.47461C35.5736 7.46484 35.6794 7.45182 35.7803 7.43555C35.8779 7.42253 35.9691 7.40788 36.0537 7.3916C36.1416 7.37533 36.2165 7.35905 36.2783 7.34277L36.4102 8.27539C36.3158 8.33073 36.2051 8.37956 36.0781 8.42188C35.9512 8.46094 35.8161 8.49349 35.6729 8.51953C35.5296 8.54557 35.3799 8.5651 35.2236 8.57812C35.0706 8.5944 34.9193 8.60254 34.7695 8.60254C34.4798 8.60254 34.2161 8.5651 33.9785 8.49023C33.7441 8.41211 33.5439 8.29167 33.3779 8.12891C33.2087 7.9694 33.0785 7.76595 32.9873 7.51855C32.8962 7.2679 32.8506 6.96842 32.8506 6.62012V4.21777H31.6445V3.2168H32.8506V1.92285H34.208Z" fill="#7951FE"/>
<path d="M38.7197 5.60938C38.7197 5.15039 38.7539 4.71908 38.8223 4.31543C38.8939 3.90853 38.9899 3.53255 39.1104 3.1875C39.2308 2.8457 39.3708 2.5332 39.5303 2.25C39.693 1.9668 39.8639 1.71615 40.043 1.49805C40.222 1.27995 40.4059 1.09603 40.5947 0.946289C40.7868 0.793294 40.9723 0.676107 41.1514 0.594727L41.415 1.33691C41.3109 1.41504 41.2067 1.50944 41.1025 1.62012C40.9984 1.73079 40.8958 1.85775 40.7949 2.00098C40.6647 2.18652 40.5426 2.40625 40.4287 2.66016C40.318 2.91406 40.2204 3.19076 40.1357 3.49023C40.0609 3.77995 40.0007 4.10059 39.9551 4.45215C39.9095 4.80371 39.8867 5.1862 39.8867 5.59961V5.72656C39.8867 6.13346 39.9079 6.50944 39.9502 6.85449C39.9958 7.19954 40.0446 7.47461 40.0967 7.67969C40.1683 7.96615 40.2513 8.23145 40.3457 8.47559C40.4434 8.71973 40.5475 8.93294 40.6582 9.11523C40.7754 9.3138 40.8991 9.48633 41.0293 9.63281C41.1595 9.7793 41.2881 9.90137 41.415 9.99902L41.1514 10.7314C40.9723 10.6501 40.7868 10.5329 40.5947 10.3799C40.4059 10.2269 40.222 10.0413 40.043 9.82324C39.8639 9.6084 39.693 9.35938 39.5303 9.07617C39.3708 8.79297 39.2308 8.47884 39.1104 8.13379C38.9899 7.79199 38.8939 7.41927 38.8223 7.01562C38.7539 6.61198 38.7197 6.17904 38.7197 5.7168V5.60938ZM71.3662 5.7168C71.3662 6.16276 71.3304 6.58594 71.2588 6.98633C71.1872 7.38346 71.0895 7.75456 70.9658 8.09961C70.8421 8.44466 70.6973 8.75879 70.5312 9.04199C70.3685 9.32845 70.1943 9.58236 70.0088 9.80371C69.8232 10.0283 69.6328 10.2188 69.4375 10.375C69.2422 10.5312 69.0518 10.6501 68.8662 10.7314L68.6074 9.99902C68.7214 9.91439 68.8353 9.80859 68.9492 9.68164C69.0632 9.55794 69.1738 9.41309 69.2812 9.24707C69.4082 9.05176 69.5238 8.8304 69.6279 8.58301C69.7354 8.33561 69.8298 8.05892 69.9111 7.75293C69.9795 7.47298 70.0332 7.16374 70.0723 6.8252C70.1146 6.48665 70.1357 6.12044 70.1357 5.72656V5.59961C70.1357 5.21549 70.1146 4.85742 70.0723 4.52539C70.0332 4.19336 69.9795 3.88737 69.9111 3.60742C69.8232 3.25911 69.7158 2.94661 69.5889 2.66992C69.4652 2.39323 69.3333 2.15397 69.1934 1.95215C69.099 1.81868 69.0013 1.69987 68.9004 1.5957C68.8027 1.48828 68.7051 1.39714 68.6074 1.32227L68.8662 0.594727C69.0518 0.676107 69.2422 0.794922 69.4375 0.951172C69.6328 1.10742 69.8232 1.29622 70.0088 1.51758C70.1943 1.74219 70.3685 1.99772 70.5312 2.28418C70.6973 2.56738 70.8421 2.88151 70.9658 3.22656C71.0895 3.57161 71.1872 3.94434 71.2588 4.34473C71.3304 4.74186 71.3662 5.16341 71.3662 5.60938V5.7168Z" fill="#FEA03F"/>
<path d="M46.0684 7.51367C46.2018 7.51367 46.3288 7.49414 46.4492 7.45508C46.5697 7.41602 46.6755 7.36068 46.7666 7.28906C46.8577 7.21745 46.9277 7.13118 46.9766 7.03027C47.0286 6.92936 47.0514 6.81706 47.0449 6.69336H48.3242C48.3307 6.9668 48.2738 7.2207 48.1533 7.45508C48.0361 7.68945 47.875 7.89128 47.6699 8.06055C47.4648 8.22982 47.2256 8.36328 46.9521 8.46094C46.682 8.55534 46.3955 8.60254 46.0928 8.60254C45.6826 8.60254 45.3229 8.53418 45.0137 8.39746C44.7044 8.25749 44.4473 8.06706 44.2422 7.82617C44.0339 7.58529 43.876 7.30371 43.7686 6.98145C43.6644 6.65592 43.6123 6.30762 43.6123 5.93652V5.79004C43.6123 5.41895 43.6644 5.07227 43.7686 4.75C43.8727 4.42448 44.029 4.14128 44.2373 3.90039C44.4456 3.65951 44.7028 3.46908 45.0088 3.3291C45.318 3.18913 45.6761 3.11914 46.083 3.11914C46.4085 3.11914 46.7096 3.16797 46.9863 3.26562C47.263 3.36328 47.5023 3.5 47.7041 3.67578C47.9027 3.85482 48.0573 4.07129 48.168 4.3252C48.2786 4.57585 48.3307 4.85742 48.3242 5.16992H47.0449C47.0514 5.03971 47.0319 4.91602 46.9863 4.79883C46.9408 4.68164 46.874 4.58073 46.7861 4.49609C46.6982 4.41146 46.5924 4.34473 46.4688 4.2959C46.3451 4.24382 46.21 4.21777 46.0635 4.21777C45.8486 4.21777 45.6712 4.26172 45.5312 4.34961C45.3913 4.4375 45.2806 4.55469 45.1992 4.70117C45.1146 4.84766 45.0544 5.0153 45.0186 5.2041C44.986 5.3929 44.9697 5.58822 44.9697 5.79004V5.93652C44.9697 6.1416 44.986 6.34017 45.0186 6.53223C45.0511 6.72103 45.1097 6.88704 45.1943 7.03027C45.2757 7.17676 45.3864 7.29395 45.5264 7.38184C45.6696 7.46973 45.8503 7.51367 46.0684 7.51367ZM49.5498 5.80957C49.5498 5.42546 49.6051 5.07064 49.7158 4.74512C49.8265 4.41634 49.9893 4.13151 50.2041 3.89062C50.4157 3.64974 50.6745 3.46094 50.9805 3.32422C51.2897 3.1875 51.6429 3.11914 52.04 3.11914C52.4372 3.11914 52.7904 3.1875 53.0996 3.32422C53.4089 3.46094 53.6709 3.64974 53.8857 3.89062C54.0973 4.13151 54.2585 4.41634 54.3691 4.74512C54.4798 5.07064 54.5352 5.42546 54.5352 5.80957V5.91211C54.5352 6.29948 54.4798 6.65755 54.3691 6.98633C54.2585 7.31185 54.0973 7.59505 53.8857 7.83594C53.6742 8.07682 53.4137 8.26562 53.1045 8.40234C52.7952 8.53581 52.4437 8.60254 52.0498 8.60254C51.6527 8.60254 51.2979 8.53581 50.9854 8.40234C50.6761 8.26562 50.4157 8.07682 50.2041 7.83594C49.9893 7.59505 49.8265 7.31185 49.7158 6.98633C49.6051 6.65755 49.5498 6.29948 49.5498 5.91211V5.80957ZM50.9072 5.91211C50.9072 6.13346 50.9284 6.3418 50.9707 6.53711C51.013 6.72917 51.0798 6.89681 51.1709 7.04004C51.262 7.18652 51.3792 7.30208 51.5225 7.38672C51.6689 7.47135 51.8447 7.51367 52.0498 7.51367C52.2484 7.51367 52.4193 7.47135 52.5625 7.38672C52.7057 7.30208 52.8229 7.18652 52.9141 7.04004C53.002 6.89681 53.0671 6.72917 53.1094 6.53711C53.1517 6.3418 53.1729 6.13346 53.1729 5.91211V5.80957C53.1729 5.59473 53.1517 5.39128 53.1094 5.19922C53.0671 5.00716 53.002 4.83789 52.9141 4.69141C52.8229 4.54492 52.7057 4.42936 52.5625 4.34473C52.4193 4.26009 52.2451 4.21777 52.04 4.21777C51.8382 4.21777 51.6657 4.26009 51.5225 4.34473C51.3792 4.42936 51.262 4.54492 51.1709 4.69141C51.0798 4.83789 51.013 5.00716 50.9707 5.19922C50.9284 5.39128 50.9072 5.59473 50.9072 5.80957V5.91211ZM55.5996 5.81934C55.5996 5.41895 55.6452 5.05273 55.7363 4.7207C55.8307 4.38867 55.9674 4.10384 56.1465 3.86621C56.3255 3.62858 56.542 3.44466 56.7959 3.31445C57.0531 3.18424 57.346 3.11914 57.6748 3.11914C57.9515 3.11914 58.194 3.1696 58.4023 3.27051C58.6139 3.36816 58.8011 3.50814 58.9639 3.69043V1H60.3262V8.5H59.1006L59.0322 7.94824C58.8662 8.15332 58.6709 8.31283 58.4463 8.42676C58.2217 8.54069 57.9613 8.59766 57.665 8.59766C57.3428 8.59766 57.0531 8.53092 56.7959 8.39746C56.542 8.26074 56.3271 8.07357 56.1514 7.83594C55.9723 7.59831 55.8356 7.31673 55.7412 6.99121C55.6468 6.66243 55.5996 6.30599 55.5996 5.92188V5.81934ZM56.957 5.92188C56.957 6.14323 56.9749 6.34993 57.0107 6.54199C57.0498 6.73079 57.1117 6.89518 57.1963 7.03516C57.2809 7.17839 57.39 7.29069 57.5234 7.37207C57.6569 7.45345 57.8197 7.49414 58.0117 7.49414C58.2461 7.49414 58.4398 7.44368 58.5928 7.34277C58.749 7.24186 58.8727 7.10352 58.9639 6.92773V4.78906C58.8727 4.61003 58.7507 4.47168 58.5977 4.37402C58.4447 4.27311 58.2526 4.22266 58.0215 4.22266C57.8294 4.22266 57.665 4.26497 57.5283 4.34961C57.3949 4.43099 57.2858 4.54329 57.2012 4.68652C57.1165 4.83301 57.0547 5.00391 57.0156 5.19922C56.9766 5.39128 56.957 5.59798 56.957 5.81934V5.92188ZM64.3105 8.59766C63.9036 8.59766 63.5342 8.53092 63.2021 8.39746C62.8701 8.264 62.5853 8.08171 62.3477 7.85059C62.11 7.62272 61.9261 7.35417 61.7959 7.04492C61.6689 6.73242 61.6055 6.39876 61.6055 6.04395V5.84863C61.6055 5.44499 61.6689 5.07715 61.7959 4.74512C61.9229 4.40983 62.1003 4.12174 62.3281 3.88086C62.556 3.63997 62.8262 3.4528 63.1387 3.31934C63.4512 3.18587 63.7913 3.11914 64.1592 3.11914C64.54 3.11914 64.8786 3.18262 65.1748 3.30957C65.4743 3.43327 65.7282 3.60905 65.9365 3.83691C66.1416 4.06478 66.2979 4.33984 66.4053 4.66211C66.5127 4.98112 66.5664 5.33431 66.5664 5.72168V6.29785H62.9824V6.3125C63.028 6.52409 63.0866 6.69499 63.1582 6.8252C63.2298 6.95215 63.3258 7.06771 63.4463 7.17188C63.57 7.2793 63.7116 7.3623 63.8711 7.4209C64.0306 7.47949 64.2048 7.50879 64.3936 7.50879C64.6605 7.50879 64.9193 7.45833 65.1699 7.35742C65.4206 7.25651 65.624 7.10514 65.7803 6.90332L66.459 7.63574C66.2865 7.87988 66.013 8.10124 65.6387 8.2998C65.2643 8.49837 64.8216 8.59766 64.3105 8.59766ZM64.1494 4.21777C63.9964 4.21777 63.8564 4.24544 63.7295 4.30078C63.6025 4.35286 63.4919 4.42936 63.3975 4.53027C63.2998 4.63118 63.2184 4.75163 63.1533 4.8916C63.0882 5.03158 63.0394 5.18783 63.0068 5.36035H65.2334V5.25293C65.2334 5.1097 65.2074 4.97461 65.1553 4.84766C65.1032 4.7207 65.0316 4.61003 64.9404 4.51562C64.8493 4.42448 64.737 4.35286 64.6035 4.30078C64.4733 4.24544 64.3219 4.21777 64.1494 4.21777Z" fill="#5BFFFF"/>
<path d="M73.8564 7.80176V6.4834L76.6543 5.5459L76.9521 5.44824L76.6592 5.35059L73.8564 4.42773V3.11426L78.251 4.90137V6.00977L73.8564 7.80176Z" fill="#F6203B"/>
</g>
<defs>
<filter id="filter0_d_12_194" x="0.161719" y="0.594727" width="79.6893" height="13.7367" filterUnits="userSpaceOnUse" color-interpolation-filters="sRGB">
<feFlood flood-opacity="0" result="BackgroundImageFix"/>
<feColorMatrix in="SourceAlpha" type="matrix" values="0 0 0 0 0 0 0 0 0 0 0 0 0 0 0 0 0 0 127 0" result="hardAlpha"/>
<feOffset dy="2"/>
<feGaussianBlur stdDeviation="0.8"/>
<feComposite in2="hardAlpha" operator="out"/>
<feColorMatrix type="matrix" values="0 0 0 0 0 0 0 0 0 0 0 0 0 0 0 0 0 0 0.3 0"/>
<feBlend mode="normal" in2="BackgroundImageFix" result="effect1_dropShadow_12_194"/>
<feBlend mode="normal" in="SourceGraphic" in2="effect1_dropShadow_12_194" result="shape"/>
</filter>
</defs>
</svg>
