<?xml version="1.0" encoding="UTF-8" standalone="no"?>
<!-- Created with Inkscape (http://www.inkscape.org/) -->

<svg
   width="211.66666mm"
   height="211.66667mm"
   viewBox="0 0 211.66666 211.66667"
   version="1.1"
   id="svg1"
   xmlns="http://www.w3.org/2000/svg"
   xmlns:svg="http://www.w3.org/2000/svg">
  <defs
     id="defs1" />
  <path
     style="fill:#fffffd;fill-opacity:1;stroke:#000000;stroke-width:4.96099;stroke-linecap:butt;stroke-dasharray:none;stroke-opacity:1;paint-order:stroke fill markers"
     d="m 20.981729,145.42509 c 0,0 -42.325212,48.11327 18.811205,41.96345 61.136416,-6.14981 69.818516,-39.43118 69.818516,-39.43118 L 109.9732,25.684531 42.686965,24.961023 43.048719,129.50791 Z"
     id="path5" />
  <path
     style="fill:#cecec8;fill-opacity:1;stroke:#000000;stroke-width:4.96099;stroke-linecap:butt;stroke-dasharray:none;stroke-opacity:1;paint-order:stroke fill markers"
     d="m 19.534712,146.14859 c 11.672044,-10.26291 48.484284,36.25132 22.428748,40.8782 -38.7453002,6.88029 -36.5371512,-12.66138 -36.5371512,-12.66138 0,0 3.594533,-18.97226 14.1084032,-28.21682 z"
     id="path6" />
  <path
     style="fill:#cecec8;fill-opacity:1;stroke:#000000;stroke-width:4.96099;stroke-linecap:butt;stroke-dasharray:none;stroke-opacity:1;paint-order:stroke fill markers"
     d="m 82.479901,175.81242 c 0,0 1.31593,-51.33897 25.818179,-46.00743 1.40002,0.30463 0.87092,4.20029 1.22293,8.20414 1.80617,20.54391 -27.041109,37.80329 -27.041109,37.80329 z"
     id="path7" />
  <rect
     style="fill:#c20000;fill-opacity:1;stroke:#c20000;stroke-width:4.81861;stroke-linecap:butt;stroke-dasharray:none;stroke-opacity:1;paint-order:stroke fill markers"
     id="rect7"
     width="62.454506"
     height="3.3981686"
     x="45.148052"
     y="41.892265" />
  <rect
     style="fill:#0067c2;fill-opacity:1;stroke:#0067c2;stroke-width:4.81861;stroke-linecap:butt;stroke-dasharray:none;stroke-opacity:1;paint-order:stroke fill markers"
     id="rect8"
     width="62.454506"
     height="3.3981686"
     x="45.148052"
     y="57.751781" />
  <path
     style="fill:#fffffd;fill-opacity:1;stroke:#000000;stroke-width:4.96099;stroke-linecap:butt;stroke-dasharray:none;stroke-opacity:1;paint-order:stroke fill markers"
     d="m 98.035319,160.257 c 0,0 -42.32521,48.11327 18.811211,41.96345 61.13641,-6.14981 69.81851,-39.43118 69.81851,-39.43118 l 0.36175,-122.272826 -67.28623,-0.723508 0.36175,104.546884 z"
     id="path8" />
  <path
     style="fill:#cecec8;fill-opacity:1;stroke:#000000;stroke-width:4.96099;stroke-linecap:butt;stroke-dasharray:none;stroke-opacity:1;paint-order:stroke fill markers"
     d="m 96.588309,160.9805 c 11.672041,-10.26291 48.484281,36.25132 22.428741,40.8782 -38.745301,6.88029 -36.537151,-12.66138 -36.537151,-12.66138 0,0 3.59454,-18.97226 14.10841,-28.21682 z"
     id="path9" />
  <path
     style="fill:#cecec8;fill-opacity:1;stroke:#000000;stroke-width:4.96099;stroke-linecap:butt;stroke-dasharray:none;stroke-opacity:1;paint-order:stroke fill markers"
     d="m 159.53349,190.64433 c 0,0 1.31593,-51.33897 25.81818,-46.00743 1.40002,0.30463 0.87092,4.20029 1.22293,8.20414 1.80617,20.54391 -27.04111,37.80329 -27.04111,37.80329 z"
     id="path10" />
  <rect
     style="fill:#c20000;fill-opacity:1;stroke:#c20000;stroke-width:4.81861;stroke-linecap:butt;stroke-dasharray:none;stroke-opacity:1;paint-order:stroke fill markers"
     id="rect10"
     width="62.454506"
     height="3.3981686"
     x="122.20164"
     y="56.724174" />
  <rect
     style="fill:#0067c2;fill-opacity:1;stroke:#0067c2;stroke-width:4.81861;stroke-linecap:butt;stroke-dasharray:none;stroke-opacity:1;paint-order:stroke fill markers"
     id="rect11"
     width="62.454506"
     height="3.3981686"
     x="122.20164"
     y="72.583694" />
</svg>
