<?xml version="1.0" encoding="UTF-8" standalone="no"?>
<!-- Created with Inkscape (http://www.inkscape.org/) -->

<svg
   width="211.66664mm"
   height="211.66667mm"
   viewBox="0 0 211.66664 211.66667"
   version="1.1"
   id="svg1"
   xml:space="preserve"
   xmlns:xlink="http://www.w3.org/1999/xlink"
   xmlns="http://www.w3.org/2000/svg"
   xmlns:svg="http://www.w3.org/2000/svg"><defs
     id="defs1"><linearGradient
       id="linearGradient5"><stop
         style="stop-color:#d9d900;stop-opacity:1;"
         offset="0"
         id="stop5" /><stop
         style="stop-color:#eeeea6;stop-opacity:1;"
         offset="0.4030138"
         id="stop7" /><stop
         style="stop-color:#dada05;stop-opacity:1;"
         offset="1"
         id="stop6" /></linearGradient><linearGradient
       xlink:href="#linearGradient5"
       id="linearGradient6"
       x1="86.953232"
       y1="99.387939"
       x2="141.21365"
       y2="51.692032"
       gradientUnits="userSpaceOnUse"
       gradientTransform="matrix(0.44972895,0,0,0.44972895,20.451135,22.145448)" /><linearGradient
       xlink:href="#linearGradient5"
       id="linearGradient7"
       gradientUnits="userSpaceOnUse"
       x1="86.953232"
       y1="99.387939"
       x2="141.21365"
       y2="51.692032"
       gradientTransform="matrix(0.44972895,0,0,0.44972895,54.269355,-16.281152)" /><linearGradient
       xlink:href="#linearGradient5"
       id="linearGradient8"
       gradientUnits="userSpaceOnUse"
       gradientTransform="matrix(0.44972895,0,0,0.44972895,31.187695,5.0897453)"
       x1="86.953232"
       y1="99.387939"
       x2="141.21365"
       y2="51.692032" /><linearGradient
       xlink:href="#linearGradient5"
       id="linearGradient14"
       gradientUnits="userSpaceOnUse"
       gradientTransform="matrix(0.44972895,0,0,0.44972895,31.187695,5.0897453)"
       x1="86.953232"
       y1="99.387939"
       x2="141.21365"
       y2="51.692032" /><linearGradient
       xlink:href="#linearGradient5"
       id="linearGradient15"
       gradientUnits="userSpaceOnUse"
       gradientTransform="matrix(0.44972895,0,0,0.44972895,20.451135,22.145448)"
       x1="86.953232"
       y1="99.387939"
       x2="141.21365"
       y2="51.692032" /><linearGradient
       xlink:href="#linearGradient5"
       id="linearGradient16"
       gradientUnits="userSpaceOnUse"
       gradientTransform="matrix(0.44972895,0,0,0.44972895,54.269355,-16.281152)"
       x1="86.953232"
       y1="99.387939"
       x2="141.21365"
       y2="51.692032" /><linearGradient
       xlink:href="#linearGradient5"
       id="linearGradient22"
       gradientUnits="userSpaceOnUse"
       gradientTransform="matrix(0.44972895,0,0,0.44972895,31.187695,5.0897453)"
       x1="86.953232"
       y1="99.387939"
       x2="141.21365"
       y2="51.692032" /><linearGradient
       xlink:href="#linearGradient5"
       id="linearGradient23"
       gradientUnits="userSpaceOnUse"
       gradientTransform="matrix(0.44972895,0,0,0.44972895,20.451135,22.145448)"
       x1="86.953232"
       y1="99.387939"
       x2="141.21365"
       y2="51.692032" /><linearGradient
       xlink:href="#linearGradient5"
       id="linearGradient24"
       gradientUnits="userSpaceOnUse"
       gradientTransform="matrix(0.44972895,0,0,0.44972895,54.269355,-16.281152)"
       x1="86.953232"
       y1="99.387939"
       x2="141.21365"
       y2="51.692032" /><linearGradient
       xlink:href="#linearGradient5"
       id="linearGradient30"
       gradientUnits="userSpaceOnUse"
       gradientTransform="matrix(0.44972895,0,0,0.44972895,31.187695,5.0897453)"
       x1="86.953232"
       y1="99.387939"
       x2="141.21365"
       y2="51.692032" /><linearGradient
       xlink:href="#linearGradient5"
       id="linearGradient31"
       gradientUnits="userSpaceOnUse"
       gradientTransform="matrix(0.44972895,0,0,0.44972895,20.451135,22.145448)"
       x1="86.953232"
       y1="99.387939"
       x2="141.21365"
       y2="51.692032" /><linearGradient
       xlink:href="#linearGradient5"
       id="linearGradient32"
       gradientUnits="userSpaceOnUse"
       gradientTransform="matrix(0.44972895,0,0,0.44972895,54.269355,-16.281152)"
       x1="86.953232"
       y1="99.387939"
       x2="141.21365"
       y2="51.692032" /><linearGradient
       xlink:href="#linearGradient5"
       id="linearGradient38"
       gradientUnits="userSpaceOnUse"
       gradientTransform="matrix(0.44972895,0,0,0.44972895,31.187695,5.0897453)"
       x1="86.953232"
       y1="99.387939"
       x2="141.21365"
       y2="51.692032" /><linearGradient
       xlink:href="#linearGradient5"
       id="linearGradient39"
       gradientUnits="userSpaceOnUse"
       gradientTransform="matrix(0.44972895,0,0,0.44972895,20.451135,22.145448)"
       x1="86.953232"
       y1="99.387939"
       x2="141.21365"
       y2="51.692032" /><linearGradient
       xlink:href="#linearGradient5"
       id="linearGradient40"
       gradientUnits="userSpaceOnUse"
       gradientTransform="matrix(0.44972895,0,0,0.44972895,54.269355,-16.281152)"
       x1="86.953232"
       y1="99.387939"
       x2="141.21365"
       y2="51.692032" /><linearGradient
       xlink:href="#linearGradient5"
       id="linearGradient46"
       gradientUnits="userSpaceOnUse"
       gradientTransform="matrix(0.44972895,0,0,0.44972895,31.187695,5.0897453)"
       x1="86.953232"
       y1="99.387939"
       x2="141.21365"
       y2="51.692032" /><linearGradient
       xlink:href="#linearGradient5"
       id="linearGradient47"
       gradientUnits="userSpaceOnUse"
       gradientTransform="matrix(0.44972895,0,0,0.44972895,20.451135,22.145448)"
       x1="86.953232"
       y1="99.387939"
       x2="141.21365"
       y2="51.692032" /><linearGradient
       xlink:href="#linearGradient5"
       id="linearGradient48"
       gradientUnits="userSpaceOnUse"
       gradientTransform="matrix(0.44972895,0,0,0.44972895,54.269355,-16.281152)"
       x1="86.953232"
       y1="99.387939"
       x2="141.21365"
       y2="51.692032" /><linearGradient
       xlink:href="#linearGradient5"
       id="linearGradient54"
       gradientUnits="userSpaceOnUse"
       gradientTransform="matrix(0.44972895,0,0,0.44972895,31.187695,5.0897453)"
       x1="86.953232"
       y1="99.387939"
       x2="141.21365"
       y2="51.692032" /><linearGradient
       xlink:href="#linearGradient5"
       id="linearGradient55"
       gradientUnits="userSpaceOnUse"
       gradientTransform="matrix(0.44972895,0,0,0.44972895,20.451135,22.145448)"
       x1="86.953232"
       y1="99.387939"
       x2="141.21365"
       y2="51.692032" /><linearGradient
       xlink:href="#linearGradient5"
       id="linearGradient56"
       gradientUnits="userSpaceOnUse"
       gradientTransform="matrix(0.44972895,0,0,0.44972895,54.269355,-16.281152)"
       x1="86.953232"
       y1="99.387939"
       x2="141.21365"
       y2="51.692032" /><linearGradient
       xlink:href="#linearGradient5"
       id="linearGradient62"
       gradientUnits="userSpaceOnUse"
       gradientTransform="matrix(0.44972895,0,0,0.44972895,31.187695,5.0897453)"
       x1="86.953232"
       y1="99.387939"
       x2="141.21365"
       y2="51.692032" /><linearGradient
       xlink:href="#linearGradient5"
       id="linearGradient63"
       gradientUnits="userSpaceOnUse"
       gradientTransform="matrix(0.44972895,0,0,0.44972895,20.451135,22.145448)"
       x1="86.953232"
       y1="99.387939"
       x2="141.21365"
       y2="51.692032" /><linearGradient
       xlink:href="#linearGradient5"
       id="linearGradient64"
       gradientUnits="userSpaceOnUse"
       gradientTransform="matrix(0.44972895,0,0,0.44972895,54.269355,-16.281152)"
       x1="86.953232"
       y1="99.387939"
       x2="141.21365"
       y2="51.692032" /><linearGradient
       xlink:href="#linearGradient5"
       id="linearGradient70"
       gradientUnits="userSpaceOnUse"
       gradientTransform="matrix(0.44972895,0,0,0.44972895,31.187695,5.0897453)"
       x1="86.953232"
       y1="99.387939"
       x2="141.21365"
       y2="51.692032" /><linearGradient
       xlink:href="#linearGradient5"
       id="linearGradient71"
       gradientUnits="userSpaceOnUse"
       gradientTransform="matrix(0.44972895,0,0,0.44972895,20.451135,22.145448)"
       x1="86.953232"
       y1="99.387939"
       x2="141.21365"
       y2="51.692032" /><linearGradient
       xlink:href="#linearGradient5"
       id="linearGradient72"
       gradientUnits="userSpaceOnUse"
       gradientTransform="matrix(0.44972895,0,0,0.44972895,54.269355,-16.281152)"
       x1="86.953232"
       y1="99.387939"
       x2="141.21365"
       y2="51.692032" /></defs><g
     id="layer3"><g
       id="layer1-7"
       transform="translate(-3.9452209,-11.50857)"><path
         style="fill:#922000;fill-opacity:1;stroke:#650901;stroke-width:2.02469;stroke-opacity:1"
         d="m 69.334307,60.628448 v 26.435967 l 7.18871,-4.29006 7.768381,4.29006 V 60.860326 Z"
         id="path3-0-7" /><ellipse
         style="fill:url(#linearGradient8);fill-opacity:1;stroke:#b4a401;stroke-width:2.02469;stroke-opacity:1"
         id="path2-2-3"
         cx="76.986763"
         cy="43.178387"
         rx="18.899368"
         ry="18.725491" /><path
         style="fill:#eaeaea;fill-opacity:0.29703;stroke:#b4a401;stroke-width:4.50199;stroke-opacity:0.647525"
         id="path4-4-4"
         d="m 142.31425,69.352419 -22.0324,-3.636423 -15.4861,16.08822 -3.34994,-22.077771 -20.086274,-9.756624 19.962014,-10.00839 3.07211,-22.118144 15.68714,15.892245 21.98494,-3.913141 -10.26683,19.830338 z"
         transform="matrix(0.44972891,0,0,0.44972891,25.274393,20.162878)" /></g><g
       id="layer2"
       transform="translate(-31.453513,-28.101909)"><path
         style="fill:#922000;fill-opacity:1;stroke:#650901;stroke-width:2.02469;stroke-opacity:1"
         d="m 58.597753,77.684146 v 26.435914 l 7.188722,-4.290022 7.768451,4.290032 V 77.916059 Z"
         id="path3" /><ellipse
         style="fill:url(#linearGradient6);fill-opacity:1;stroke:#b4a401;stroke-width:2.02469;stroke-opacity:1"
         id="path2"
         cx="66.250298"
         cy="60.2341"
         rx="18.899368"
         ry="18.725491" /><path
         style="fill:#eaeaea;fill-opacity:0.29703;stroke:#b4a401;stroke-width:4.50199;stroke-opacity:0.647525"
         id="path4"
         d="m 142.31425,69.352419 -22.0324,-3.636423 -15.4861,16.08822 -3.34994,-22.077771 -20.086274,-9.756624 19.962014,-10.00839 3.07211,-22.118144 15.68714,15.892245 21.98494,-3.913141 -10.26683,19.830338 z"
         transform="matrix(0.44972891,0,0,0.44972891,14.537829,37.914265)" /></g><g
       id="layer1"
       transform="translate(-45.891191,27.328463)"><path
         style="fill:#922000;fill-opacity:1;stroke:#650901;stroke-width:2.02469;stroke-opacity:1"
         d="m 92.415943,39.257505 v 26.43599 l 7.188771,-4.290022 7.768406,4.290029 V 39.489421 Z"
         id="path3-0" /><ellipse
         style="fill:url(#linearGradient7);fill-opacity:1;stroke:#b4a401;stroke-width:2.02469;stroke-opacity:1"
         id="path2-2"
         cx="100.06852"
         cy="21.80748"
         rx="18.899368"
         ry="18.725491" /><path
         style="fill:#eaeaea;fill-opacity:0.29703;stroke:#b4a401;stroke-width:4.50199;stroke-opacity:0.647525"
         id="path4-4"
         d="m 142.31425,69.352419 -22.0324,-3.636423 -15.4861,16.08822 -3.34994,-22.077771 -20.086274,-9.756624 19.962014,-10.00839 3.07211,-22.118144 15.68714,15.892245 21.98494,-3.913141 -10.26683,19.830338 z"
         transform="matrix(0.44972891,0,0,0.44972891,48.356044,-1.2080174)" /></g></g><g
     id="g14"
     transform="translate(51.199929,23.700019)"><g
       id="g9"
       transform="translate(-3.9452209,-11.50857)"><path
         style="fill:#922000;fill-opacity:1;stroke:#650901;stroke-width:2.02469;stroke-opacity:1"
         d="m 69.334307,60.628448 v 26.435967 l 7.18871,-4.29006 7.768381,4.29006 V 60.860326 Z"
         id="path8" /><ellipse
         style="fill:url(#linearGradient14);fill-opacity:1;stroke:#b4a401;stroke-width:2.02469;stroke-opacity:1"
         id="ellipse8"
         cx="76.986763"
         cy="43.178387"
         rx="18.899368"
         ry="18.725491" /><path
         style="fill:#eaeaea;fill-opacity:0.29703;stroke:#b4a401;stroke-width:4.50199;stroke-opacity:0.647525"
         id="path9"
         d="m 142.31425,69.352419 -22.0324,-3.636423 -15.4861,16.08822 -3.34994,-22.077771 -20.086274,-9.756624 19.962014,-10.00839 3.07211,-22.118144 15.68714,15.892245 21.98494,-3.913141 -10.26683,19.830338 z"
         transform="matrix(0.44972891,0,0,0.44972891,25.274393,20.162878)" /></g><g
       id="g11"
       transform="translate(-31.453513,-28.101909)"><path
         style="fill:#922000;fill-opacity:1;stroke:#650901;stroke-width:2.02469;stroke-opacity:1"
         d="m 58.597753,77.684146 v 26.435914 l 7.188722,-4.290022 7.768451,4.290032 V 77.916059 Z"
         id="path10" /><ellipse
         style="fill:url(#linearGradient15);fill-opacity:1;stroke:#b4a401;stroke-width:2.02469;stroke-opacity:1"
         id="ellipse10"
         cx="66.250298"
         cy="60.2341"
         rx="18.899368"
         ry="18.725491" /><path
         style="fill:#eaeaea;fill-opacity:0.29703;stroke:#b4a401;stroke-width:4.50199;stroke-opacity:0.647525"
         id="path11"
         d="m 142.31425,69.352419 -22.0324,-3.636423 -15.4861,16.08822 -3.34994,-22.077771 -20.086274,-9.756624 19.962014,-10.00839 3.07211,-22.118144 15.68714,15.892245 21.98494,-3.913141 -10.26683,19.830338 z"
         transform="matrix(0.44972891,0,0,0.44972891,14.537829,37.914265)" /></g><g
       id="g13"
       transform="translate(-45.891191,27.328463)"><path
         style="fill:#922000;fill-opacity:1;stroke:#650901;stroke-width:2.02469;stroke-opacity:1"
         d="m 92.415943,39.257505 v 26.43599 l 7.188771,-4.290022 7.768406,4.290029 V 39.489421 Z"
         id="path12" /><ellipse
         style="fill:url(#linearGradient16);fill-opacity:1;stroke:#b4a401;stroke-width:2.02469;stroke-opacity:1"
         id="ellipse12"
         cx="100.06852"
         cy="21.80748"
         rx="18.899368"
         ry="18.725491" /><path
         style="fill:#eaeaea;fill-opacity:0.29703;stroke:#b4a401;stroke-width:4.50199;stroke-opacity:0.647525"
         id="path13"
         d="m 142.31425,69.352419 -22.0324,-3.636423 -15.4861,16.08822 -3.34994,-22.077771 -20.086274,-9.756624 19.962014,-10.00839 3.07211,-22.118144 15.68714,15.892245 21.98494,-3.913141 -10.26683,19.830338 z"
         transform="matrix(0.44972891,0,0,0.44972891,48.356044,-1.2080174)" /></g></g><g
     id="g22"
     transform="translate(103.39993,-4.8999812)"><g
       id="g17"
       transform="translate(-3.9452209,-11.50857)"><path
         style="fill:#922000;fill-opacity:1;stroke:#650901;stroke-width:2.02469;stroke-opacity:1"
         d="m 69.334307,60.628448 v 26.435967 l 7.18871,-4.29006 7.768381,4.29006 V 60.860326 Z"
         id="path16" /><ellipse
         style="fill:url(#linearGradient22);fill-opacity:1;stroke:#b4a401;stroke-width:2.02469;stroke-opacity:1"
         id="ellipse16"
         cx="76.986763"
         cy="43.178387"
         rx="18.899368"
         ry="18.725491" /><path
         style="fill:#eaeaea;fill-opacity:0.29703;stroke:#b4a401;stroke-width:4.50199;stroke-opacity:0.647525"
         id="path17"
         d="m 142.31425,69.352419 -22.0324,-3.636423 -15.4861,16.08822 -3.34994,-22.077771 -20.086274,-9.756624 19.962014,-10.00839 3.07211,-22.118144 15.68714,15.892245 21.98494,-3.913141 -10.26683,19.830338 z"
         transform="matrix(0.44972891,0,0,0.44972891,25.274393,20.162878)" /></g><g
       id="g19"
       transform="translate(-31.453513,-28.101909)"><path
         style="fill:#922000;fill-opacity:1;stroke:#650901;stroke-width:2.02469;stroke-opacity:1"
         d="m 58.597753,77.684146 v 26.435914 l 7.188722,-4.290022 7.768451,4.290032 V 77.916059 Z"
         id="path18" /><ellipse
         style="fill:url(#linearGradient23);fill-opacity:1;stroke:#b4a401;stroke-width:2.02469;stroke-opacity:1"
         id="ellipse18"
         cx="66.250298"
         cy="60.2341"
         rx="18.899368"
         ry="18.725491" /><path
         style="fill:#eaeaea;fill-opacity:0.29703;stroke:#b4a401;stroke-width:4.50199;stroke-opacity:0.647525"
         id="path19"
         d="m 142.31425,69.352419 -22.0324,-3.636423 -15.4861,16.08822 -3.34994,-22.077771 -20.086274,-9.756624 19.962014,-10.00839 3.07211,-22.118144 15.68714,15.892245 21.98494,-3.913141 -10.26683,19.830338 z"
         transform="matrix(0.44972891,0,0,0.44972891,14.537829,37.914265)" /></g><g
       id="g21"
       transform="translate(-45.891191,27.328463)"><path
         style="fill:#922000;fill-opacity:1;stroke:#650901;stroke-width:2.02469;stroke-opacity:1"
         d="m 92.415943,39.257505 v 26.43599 l 7.188771,-4.290022 7.768406,4.290029 V 39.489421 Z"
         id="path20" /><ellipse
         style="fill:url(#linearGradient24);fill-opacity:1;stroke:#b4a401;stroke-width:2.02469;stroke-opacity:1"
         id="ellipse20"
         cx="100.06852"
         cy="21.80748"
         rx="18.899368"
         ry="18.725491" /><path
         style="fill:#eaeaea;fill-opacity:0.29703;stroke:#b4a401;stroke-width:4.50199;stroke-opacity:0.647525"
         id="path21"
         d="m 142.31425,69.352419 -22.0324,-3.636423 -15.4861,16.08822 -3.34994,-22.077771 -20.086274,-9.756624 19.962014,-10.00839 3.07211,-22.118144 15.68714,15.892245 21.98494,-3.913141 -10.26683,19.830338 z"
         transform="matrix(0.44972891,0,0,0.44972891,48.356044,-1.2080174)" /></g></g><g
     id="g30"
     transform="translate(103.39993,46.700019)"><g
       id="g25"
       transform="translate(-3.9452209,-11.50857)"><path
         style="fill:#922000;fill-opacity:1;stroke:#650901;stroke-width:2.02469;stroke-opacity:1"
         d="m 69.334307,60.628448 v 26.435967 l 7.18871,-4.29006 7.768381,4.29006 V 60.860326 Z"
         id="path24" /><ellipse
         style="fill:url(#linearGradient30);fill-opacity:1;stroke:#b4a401;stroke-width:2.02469;stroke-opacity:1"
         id="ellipse24"
         cx="76.986763"
         cy="43.178387"
         rx="18.899368"
         ry="18.725491" /><path
         style="fill:#eaeaea;fill-opacity:0.29703;stroke:#b4a401;stroke-width:4.50199;stroke-opacity:0.647525"
         id="path25"
         d="m 142.31425,69.352419 -22.0324,-3.636423 -15.4861,16.08822 -3.34994,-22.077771 -20.086274,-9.756624 19.962014,-10.00839 3.07211,-22.118144 15.68714,15.892245 21.98494,-3.913141 -10.26683,19.830338 z"
         transform="matrix(0.44972891,0,0,0.44972891,25.274393,20.162878)" /></g><g
       id="g27"
       transform="translate(-31.453513,-28.101909)"><path
         style="fill:#922000;fill-opacity:1;stroke:#650901;stroke-width:2.02469;stroke-opacity:1"
         d="m 58.597753,77.684146 v 26.435914 l 7.188722,-4.290022 7.768451,4.290032 V 77.916059 Z"
         id="path26" /><ellipse
         style="fill:url(#linearGradient31);fill-opacity:1;stroke:#b4a401;stroke-width:2.02469;stroke-opacity:1"
         id="ellipse26"
         cx="66.250298"
         cy="60.2341"
         rx="18.899368"
         ry="18.725491" /><path
         style="fill:#eaeaea;fill-opacity:0.29703;stroke:#b4a401;stroke-width:4.50199;stroke-opacity:0.647525"
         id="path27"
         d="m 142.31425,69.352419 -22.0324,-3.636423 -15.4861,16.08822 -3.34994,-22.077771 -20.086274,-9.756624 19.962014,-10.00839 3.07211,-22.118144 15.68714,15.892245 21.98494,-3.913141 -10.26683,19.830338 z"
         transform="matrix(0.44972891,0,0,0.44972891,14.537829,37.914265)" /></g><g
       id="g29"
       transform="translate(-45.891191,27.328463)"><path
         style="fill:#922000;fill-opacity:1;stroke:#650901;stroke-width:2.02469;stroke-opacity:1"
         d="m 92.415943,39.257505 v 26.43599 l 7.188771,-4.290022 7.768406,4.290029 V 39.489421 Z"
         id="path28" /><ellipse
         style="fill:url(#linearGradient32);fill-opacity:1;stroke:#b4a401;stroke-width:2.02469;stroke-opacity:1"
         id="ellipse28"
         cx="100.06852"
         cy="21.80748"
         rx="18.899368"
         ry="18.725491" /><path
         style="fill:#eaeaea;fill-opacity:0.29703;stroke:#b4a401;stroke-width:4.50199;stroke-opacity:0.647525"
         id="path29"
         d="m 142.31425,69.352419 -22.0324,-3.636423 -15.4861,16.08822 -3.34994,-22.077771 -20.086274,-9.756624 19.962014,-10.00839 3.07211,-22.118144 15.68714,15.892245 21.98494,-3.913141 -10.26683,19.830338 z"
         transform="matrix(0.44972891,0,0,0.44972891,48.356044,-1.2080174)" /></g></g><g
     id="g38"
     transform="translate(-3.20007,46.700019)"><g
       id="g33"
       transform="translate(-3.9452209,-11.50857)"><path
         style="fill:#922000;fill-opacity:1;stroke:#650901;stroke-width:2.02469;stroke-opacity:1"
         d="m 69.334307,60.628448 v 26.435967 l 7.18871,-4.29006 7.768381,4.29006 V 60.860326 Z"
         id="path32" /><ellipse
         style="fill:url(#linearGradient38);fill-opacity:1;stroke:#b4a401;stroke-width:2.02469;stroke-opacity:1"
         id="ellipse32"
         cx="76.986763"
         cy="43.178387"
         rx="18.899368"
         ry="18.725491" /><path
         style="fill:#eaeaea;fill-opacity:0.29703;stroke:#b4a401;stroke-width:4.50199;stroke-opacity:0.647525"
         id="path33"
         d="m 142.31425,69.352419 -22.0324,-3.636423 -15.4861,16.08822 -3.34994,-22.077771 -20.086274,-9.756624 19.962014,-10.00839 3.07211,-22.118144 15.68714,15.892245 21.98494,-3.913141 -10.26683,19.830338 z"
         transform="matrix(0.44972891,0,0,0.44972891,25.274393,20.162878)" /></g><g
       id="g35"
       transform="translate(-31.453513,-28.101909)"><path
         style="fill:#922000;fill-opacity:1;stroke:#650901;stroke-width:2.02469;stroke-opacity:1"
         d="m 58.597753,77.684146 v 26.435914 l 7.188722,-4.290022 7.768451,4.290032 V 77.916059 Z"
         id="path34" /><ellipse
         style="fill:url(#linearGradient39);fill-opacity:1;stroke:#b4a401;stroke-width:2.02469;stroke-opacity:1"
         id="ellipse34"
         cx="66.250298"
         cy="60.2341"
         rx="18.899368"
         ry="18.725491" /><path
         style="fill:#eaeaea;fill-opacity:0.29703;stroke:#b4a401;stroke-width:4.50199;stroke-opacity:0.647525"
         id="path35"
         d="m 142.31425,69.352419 -22.0324,-3.636423 -15.4861,16.08822 -3.34994,-22.077771 -20.086274,-9.756624 19.962014,-10.00839 3.07211,-22.118144 15.68714,15.892245 21.98494,-3.913141 -10.26683,19.830338 z"
         transform="matrix(0.44972891,0,0,0.44972891,14.537829,37.914265)" /></g><g
       id="g37"
       transform="translate(-45.891191,27.328463)"><path
         style="fill:#922000;fill-opacity:1;stroke:#650901;stroke-width:2.02469;stroke-opacity:1"
         d="m 92.415943,39.257505 v 26.43599 l 7.188771,-4.290022 7.768406,4.290029 V 39.489421 Z"
         id="path36" /><ellipse
         style="fill:url(#linearGradient40);fill-opacity:1;stroke:#b4a401;stroke-width:2.02469;stroke-opacity:1"
         id="ellipse36"
         cx="100.06852"
         cy="21.80748"
         rx="18.899368"
         ry="18.725491" /><path
         style="fill:#eaeaea;fill-opacity:0.29703;stroke:#b4a401;stroke-width:4.50199;stroke-opacity:0.647525"
         id="path37"
         d="m 142.31425,69.352419 -22.0324,-3.636423 -15.4861,16.08822 -3.34994,-22.077771 -20.086274,-9.756624 19.962014,-10.00839 3.07211,-22.118144 15.68714,15.892245 21.98494,-3.913141 -10.26683,19.830338 z"
         transform="matrix(0.44972891,0,0,0.44972891,48.356044,-1.2080174)" /></g></g><g
     id="g46"
     transform="translate(48.999929,68.500019)"><g
       id="g41"
       transform="translate(-3.9452209,-11.50857)"><path
         style="fill:#922000;fill-opacity:1;stroke:#650901;stroke-width:2.02469;stroke-opacity:1"
         d="m 69.334307,60.628448 v 26.435967 l 7.18871,-4.29006 7.768381,4.29006 V 60.860326 Z"
         id="path40" /><ellipse
         style="fill:url(#linearGradient46);fill-opacity:1;stroke:#b4a401;stroke-width:2.02469;stroke-opacity:1"
         id="ellipse40"
         cx="76.986763"
         cy="43.178387"
         rx="18.899368"
         ry="18.725491" /><path
         style="fill:#eaeaea;fill-opacity:0.29703;stroke:#b4a401;stroke-width:4.50199;stroke-opacity:0.647525"
         id="path41"
         d="m 142.31425,69.352419 -22.0324,-3.636423 -15.4861,16.08822 -3.34994,-22.077771 -20.086274,-9.756624 19.962014,-10.00839 3.07211,-22.118144 15.68714,15.892245 21.98494,-3.913141 -10.26683,19.830338 z"
         transform="matrix(0.44972891,0,0,0.44972891,25.274393,20.162878)" /></g><g
       id="g43"
       transform="translate(-31.453513,-28.101909)"><path
         style="fill:#922000;fill-opacity:1;stroke:#650901;stroke-width:2.02469;stroke-opacity:1"
         d="m 58.597753,77.684146 v 26.435914 l 7.188722,-4.290022 7.768451,4.290032 V 77.916059 Z"
         id="path42" /><ellipse
         style="fill:url(#linearGradient47);fill-opacity:1;stroke:#b4a401;stroke-width:2.02469;stroke-opacity:1"
         id="ellipse42"
         cx="66.250298"
         cy="60.2341"
         rx="18.899368"
         ry="18.725491" /><path
         style="fill:#eaeaea;fill-opacity:0.29703;stroke:#b4a401;stroke-width:4.50199;stroke-opacity:0.647525"
         id="path43"
         d="m 142.31425,69.352419 -22.0324,-3.636423 -15.4861,16.08822 -3.34994,-22.077771 -20.086274,-9.756624 19.962014,-10.00839 3.07211,-22.118144 15.68714,15.892245 21.98494,-3.913141 -10.26683,19.830338 z"
         transform="matrix(0.44972891,0,0,0.44972891,14.537829,37.914265)" /></g><g
       id="g45"
       transform="translate(-45.891191,27.328463)"><path
         style="fill:#922000;fill-opacity:1;stroke:#650901;stroke-width:2.02469;stroke-opacity:1"
         d="m 92.415943,39.257505 v 26.43599 l 7.188771,-4.290022 7.768406,4.290029 V 39.489421 Z"
         id="path44" /><ellipse
         style="fill:url(#linearGradient48);fill-opacity:1;stroke:#b4a401;stroke-width:2.02469;stroke-opacity:1"
         id="ellipse44"
         cx="100.06852"
         cy="21.80748"
         rx="18.899368"
         ry="18.725491" /><path
         style="fill:#eaeaea;fill-opacity:0.29703;stroke:#b4a401;stroke-width:4.50199;stroke-opacity:0.647525"
         id="path45"
         d="m 142.31425,69.352419 -22.0324,-3.636423 -15.4861,16.08822 -3.34994,-22.077771 -20.086274,-9.756624 19.962014,-10.00839 3.07211,-22.118144 15.68714,15.892245 21.98494,-3.913141 -10.26683,19.830338 z"
         transform="matrix(0.44972891,0,0,0.44972891,48.356044,-1.2080174)" /></g></g><g
     id="g54"
     transform="translate(48.999929,114.30002)"><g
       id="g49"
       transform="translate(-3.9452209,-11.50857)"><path
         style="fill:#922000;fill-opacity:1;stroke:#650901;stroke-width:2.02469;stroke-opacity:1"
         d="m 69.334307,60.628448 v 26.435967 l 7.18871,-4.29006 7.768381,4.29006 V 60.860326 Z"
         id="path48" /><ellipse
         style="fill:url(#linearGradient54);fill-opacity:1;stroke:#b4a401;stroke-width:2.02469;stroke-opacity:1"
         id="ellipse48"
         cx="76.986763"
         cy="43.178387"
         rx="18.899368"
         ry="18.725491" /><path
         style="fill:#eaeaea;fill-opacity:0.29703;stroke:#b4a401;stroke-width:4.50199;stroke-opacity:0.647525"
         id="path49"
         d="m 142.31425,69.352419 -22.0324,-3.636423 -15.4861,16.08822 -3.34994,-22.077771 -20.086274,-9.756624 19.962014,-10.00839 3.07211,-22.118144 15.68714,15.892245 21.98494,-3.913141 -10.26683,19.830338 z"
         transform="matrix(0.44972891,0,0,0.44972891,25.274393,20.162878)" /></g><g
       id="g51"
       transform="translate(-31.453513,-28.101909)"><path
         style="fill:#922000;fill-opacity:1;stroke:#650901;stroke-width:2.02469;stroke-opacity:1"
         d="m 58.597753,77.684146 v 26.435914 l 7.188722,-4.290022 7.768451,4.290032 V 77.916059 Z"
         id="path50" /><ellipse
         style="fill:url(#linearGradient55);fill-opacity:1;stroke:#b4a401;stroke-width:2.02469;stroke-opacity:1"
         id="ellipse50"
         cx="66.250298"
         cy="60.2341"
         rx="18.899368"
         ry="18.725491" /><path
         style="fill:#eaeaea;fill-opacity:0.29703;stroke:#b4a401;stroke-width:4.50199;stroke-opacity:0.647525"
         id="path51"
         d="m 142.31425,69.352419 -22.0324,-3.636423 -15.4861,16.08822 -3.34994,-22.077771 -20.086274,-9.756624 19.962014,-10.00839 3.07211,-22.118144 15.68714,15.892245 21.98494,-3.913141 -10.26683,19.830338 z"
         transform="matrix(0.44972891,0,0,0.44972891,14.537829,37.914265)" /></g><g
       id="g53"
       transform="translate(-45.891191,27.328463)"><path
         style="fill:#922000;fill-opacity:1;stroke:#650901;stroke-width:2.02469;stroke-opacity:1"
         d="m 92.415943,39.257505 v 26.43599 l 7.188771,-4.290022 7.768406,4.290029 V 39.489421 Z"
         id="path52" /><ellipse
         style="fill:url(#linearGradient56);fill-opacity:1;stroke:#b4a401;stroke-width:2.02469;stroke-opacity:1"
         id="ellipse52"
         cx="100.06852"
         cy="21.80748"
         rx="18.899368"
         ry="18.725491" /><path
         style="fill:#eaeaea;fill-opacity:0.29703;stroke:#b4a401;stroke-width:4.50199;stroke-opacity:0.647525"
         id="path53"
         d="m 142.31425,69.352419 -22.0324,-3.636423 -15.4861,16.08822 -3.34994,-22.077771 -20.086274,-9.756624 19.962014,-10.00839 3.07211,-22.118144 15.68714,15.892245 21.98494,-3.913141 -10.26683,19.830338 z"
         transform="matrix(0.44972891,0,0,0.44972891,48.356044,-1.2080174)" /></g></g><g
     id="g62"
     transform="translate(96.599929,100.10002)"><g
       id="g57"
       transform="translate(-3.9452209,-11.50857)"><path
         style="fill:#922000;fill-opacity:1;stroke:#650901;stroke-width:2.02469;stroke-opacity:1"
         d="m 69.334307,60.628448 v 26.435967 l 7.18871,-4.29006 7.768381,4.29006 V 60.860326 Z"
         id="path56" /><ellipse
         style="fill:url(#linearGradient62);fill-opacity:1;stroke:#b4a401;stroke-width:2.02469;stroke-opacity:1"
         id="ellipse56"
         cx="76.986763"
         cy="43.178387"
         rx="18.899368"
         ry="18.725491" /><path
         style="fill:#eaeaea;fill-opacity:0.29703;stroke:#b4a401;stroke-width:4.50199;stroke-opacity:0.647525"
         id="path57"
         d="m 142.31425,69.352419 -22.0324,-3.636423 -15.4861,16.08822 -3.34994,-22.077771 -20.086274,-9.756624 19.962014,-10.00839 3.07211,-22.118144 15.68714,15.892245 21.98494,-3.913141 -10.26683,19.830338 z"
         transform="matrix(0.44972891,0,0,0.44972891,25.274393,20.162878)" /></g><g
       id="g59"
       transform="translate(-31.453513,-28.101909)"><path
         style="fill:#922000;fill-opacity:1;stroke:#650901;stroke-width:2.02469;stroke-opacity:1"
         d="m 58.597753,77.684146 v 26.435914 l 7.188722,-4.290022 7.768451,4.290032 V 77.916059 Z"
         id="path58" /><ellipse
         style="fill:url(#linearGradient63);fill-opacity:1;stroke:#b4a401;stroke-width:2.02469;stroke-opacity:1"
         id="ellipse58"
         cx="66.250298"
         cy="60.2341"
         rx="18.899368"
         ry="18.725491" /><path
         style="fill:#eaeaea;fill-opacity:0.29703;stroke:#b4a401;stroke-width:4.50199;stroke-opacity:0.647525"
         id="path59"
         d="m 142.31425,69.352419 -22.0324,-3.636423 -15.4861,16.08822 -3.34994,-22.077771 -20.086274,-9.756624 19.962014,-10.00839 3.07211,-22.118144 15.68714,15.892245 21.98494,-3.913141 -10.26683,19.830338 z"
         transform="matrix(0.44972891,0,0,0.44972891,14.537829,37.914265)" /></g><g
       id="g61"
       transform="translate(-45.891191,27.328463)"><path
         style="fill:#922000;fill-opacity:1;stroke:#650901;stroke-width:2.02469;stroke-opacity:1"
         d="m 92.415943,39.257505 v 26.43599 l 7.188771,-4.290022 7.768406,4.290029 V 39.489421 Z"
         id="path60" /><ellipse
         style="fill:url(#linearGradient64);fill-opacity:1;stroke:#b4a401;stroke-width:2.02469;stroke-opacity:1"
         id="ellipse60"
         cx="100.06852"
         cy="21.80748"
         rx="18.899368"
         ry="18.725491" /><path
         style="fill:#eaeaea;fill-opacity:0.29703;stroke:#b4a401;stroke-width:4.50199;stroke-opacity:0.647525"
         id="path61"
         d="m 142.31425,69.352419 -22.0324,-3.636423 -15.4861,16.08822 -3.34994,-22.077771 -20.086274,-9.756624 19.962014,-10.00839 3.07211,-22.118144 15.68714,15.892245 21.98494,-3.913141 -10.26683,19.830338 z"
         transform="matrix(0.44972891,0,0,0.44972891,48.356044,-1.2080174)" /></g></g><g
     id="g70"
     transform="translate(-5.1000713,100.10002)"><g
       id="g65"
       transform="translate(-3.9452209,-11.50857)"><path
         style="fill:#922000;fill-opacity:1;stroke:#650901;stroke-width:2.02469;stroke-opacity:1"
         d="m 69.334307,60.628448 v 26.435967 l 7.18871,-4.29006 7.768381,4.29006 V 60.860326 Z"
         id="path64" /><ellipse
         style="fill:url(#linearGradient70);fill-opacity:1;stroke:#b4a401;stroke-width:2.02469;stroke-opacity:1"
         id="ellipse64"
         cx="76.986763"
         cy="43.178387"
         rx="18.899368"
         ry="18.725491" /><path
         style="fill:#eaeaea;fill-opacity:0.29703;stroke:#b4a401;stroke-width:4.50199;stroke-opacity:0.647525"
         id="path65"
         d="m 142.31425,69.352419 -22.0324,-3.636423 -15.4861,16.08822 -3.34994,-22.077771 -20.086274,-9.756624 19.962014,-10.00839 3.07211,-22.118144 15.68714,15.892245 21.98494,-3.913141 -10.26683,19.830338 z"
         transform="matrix(0.44972891,0,0,0.44972891,25.274393,20.162878)" /></g><g
       id="g67"
       transform="translate(-31.453513,-28.101909)"><path
         style="fill:#922000;fill-opacity:1;stroke:#650901;stroke-width:2.02469;stroke-opacity:1"
         d="m 58.597753,77.684146 v 26.435914 l 7.188722,-4.290022 7.768451,4.290032 V 77.916059 Z"
         id="path66" /><ellipse
         style="fill:url(#linearGradient71);fill-opacity:1;stroke:#b4a401;stroke-width:2.02469;stroke-opacity:1"
         id="ellipse66"
         cx="66.250298"
         cy="60.2341"
         rx="18.899368"
         ry="18.725491" /><path
         style="fill:#eaeaea;fill-opacity:0.29703;stroke:#b4a401;stroke-width:4.50199;stroke-opacity:0.647525"
         id="path67"
         d="m 142.31425,69.352419 -22.0324,-3.636423 -15.4861,16.08822 -3.34994,-22.077771 -20.086274,-9.756624 19.962014,-10.00839 3.07211,-22.118144 15.68714,15.892245 21.98494,-3.913141 -10.26683,19.830338 z"
         transform="matrix(0.44972891,0,0,0.44972891,14.537829,37.914265)" /></g><g
       id="g69"
       transform="translate(-45.891191,27.328463)"><path
         style="fill:#922000;fill-opacity:1;stroke:#650901;stroke-width:2.02469;stroke-opacity:1"
         d="m 92.415943,39.257505 v 26.43599 l 7.188771,-4.290022 7.768406,4.290029 V 39.489421 Z"
         id="path68" /><ellipse
         style="fill:url(#linearGradient72);fill-opacity:1;stroke:#b4a401;stroke-width:2.02469;stroke-opacity:1"
         id="ellipse68"
         cx="100.06852"
         cy="21.80748"
         rx="18.899368"
         ry="18.725491" /><path
         style="fill:#eaeaea;fill-opacity:0.29703;stroke:#b4a401;stroke-width:4.50199;stroke-opacity:0.647525"
         id="path69"
         d="m 142.31425,69.352419 -22.0324,-3.636423 -15.4861,16.08822 -3.34994,-22.077771 -20.086274,-9.756624 19.962014,-10.00839 3.07211,-22.118144 15.68714,15.892245 21.98494,-3.913141 -10.26683,19.830338 z"
         transform="matrix(0.44972891,0,0,0.44972891,48.356044,-1.2080174)" /></g></g></svg>
