<?xml version="1.0" encoding="UTF-8" standalone="no"?>
<!-- Created with Inkscape (http://www.inkscape.org/) -->

<svg
   width="211.66664mm"
   height="211.66667mm"
   viewBox="0 0 211.66664 211.66667"
   version="1.1"
   id="svg1"
   xml:space="preserve"
   xmlns:xlink="http://www.w3.org/1999/xlink"
   xmlns="http://www.w3.org/2000/svg"
   xmlns:svg="http://www.w3.org/2000/svg"><defs
     id="defs1"><linearGradient
       id="linearGradient5"><stop
         style="stop-color:#d9d900;stop-opacity:1;"
         offset="0"
         id="stop5" /><stop
         style="stop-color:#eeeea6;stop-opacity:1;"
         offset="0.4030138"
         id="stop7" /><stop
         style="stop-color:#dada05;stop-opacity:1;"
         offset="1"
         id="stop6" /></linearGradient><linearGradient
       xlink:href="#linearGradient5"
       id="linearGradient6"
       x1="86.953232"
       y1="99.387939"
       x2="141.21365"
       y2="51.692032"
       gradientUnits="userSpaceOnUse"
       gradientTransform="translate(-9.0235487,0.25781568)" /><linearGradient
       xlink:href="#linearGradient5"
       id="linearGradient7"
       gradientUnits="userSpaceOnUse"
       x1="86.953232"
       y1="99.387939"
       x2="141.21365"
       y2="51.692032"
       gradientTransform="translate(48.507956,-17.36362)" /><linearGradient
       xlink:href="#linearGradient5"
       id="linearGradient8"
       gradientUnits="userSpaceOnUse"
       gradientTransform="translate(48.507956,-17.36362)"
       x1="86.953232"
       y1="99.387939"
       x2="141.21365"
       y2="51.692032" /></defs><g
     id="layer2"
     transform="translate(-31.453513,-28.101909)"><path
       style="fill:#922000;fill-opacity:1;stroke:#650901;stroke-width:4.50199;stroke-opacity:1"
       d="m 75.797808,123.75153 v 58.78197 l 15.984573,-9.53918 17.273649,9.53919 v -58.26635 z"
       id="path3" /><ellipse
       style="fill:url(#linearGradient6);fill-opacity:1;stroke:#b4a401;stroke-width:4.50199;stroke-opacity:1"
       id="path2"
       cx="92.813644"
       cy="84.950256"
       rx="42.023956"
       ry="41.63723" /><path
       style="fill:#eaeaea;fill-opacity:0.29703;stroke:#b4a401;stroke-width:4.50199;stroke-opacity:0.647525"
       id="path4"
       d="m 142.31425,69.352419 -22.0324,-3.636423 -15.4861,16.08822 -3.34994,-22.077771 -20.086274,-9.756624 19.962014,-10.00839 3.07211,-22.118144 15.68714,15.892245 21.98494,-3.913141 -10.26683,19.830338 z"
       transform="translate(-22.172149,35.320748)" /></g><g
     id="layer1"
     transform="translate(-45.891191,27.328463)"><path
       style="fill:#922000;fill-opacity:1;stroke:#650901;stroke-width:4.50199;stroke-opacity:1"
       d="m 133.32931,106.1301 v 58.78197 l 15.98457,-9.53918 17.27365,9.53919 v -58.26635 z"
       id="path3-0" /><ellipse
       style="fill:url(#linearGradient7);fill-opacity:1;stroke:#b4a401;stroke-width:4.50199;stroke-opacity:1"
       id="path2-2"
       cx="150.34515"
       cy="67.328827"
       rx="42.023956"
       ry="41.63723" /><path
       style="fill:#eaeaea;fill-opacity:0.29703;stroke:#b4a401;stroke-width:4.50199;stroke-opacity:0.647525"
       id="path4-4"
       d="m 142.31425,69.352419 -22.0324,-3.636423 -15.4861,16.08822 -3.34994,-22.077771 -20.086274,-9.756624 19.962014,-10.00839 3.07211,-22.118144 15.68714,15.892245 21.98494,-3.913141 -10.26683,19.830338 z"
       transform="translate(35.359356,16.152422)" /></g><g
     id="layer1-7"
     transform="translate(-3.9452209,-11.50857)"><path
       style="fill:#922000;fill-opacity:1;stroke:#650901;stroke-width:4.50199;stroke-opacity:1"
       d="m 133.32931,106.1301 v 58.78197 l 15.98457,-9.53918 17.27365,9.53919 v -58.26635 z"
       id="path3-0-7" /><ellipse
       style="fill:url(#linearGradient8);fill-opacity:1;stroke:#b4a401;stroke-width:4.50199;stroke-opacity:1"
       id="path2-2-3"
       cx="150.34515"
       cy="67.328827"
       rx="42.023956"
       ry="41.63723" /><path
       style="fill:#eaeaea;fill-opacity:0.29703;stroke:#b4a401;stroke-width:4.50199;stroke-opacity:0.647525"
       id="path4-4-4"
       d="m 142.31425,69.352419 -22.0324,-3.636423 -15.4861,16.08822 -3.34994,-22.077771 -20.086274,-9.756624 19.962014,-10.00839 3.07211,-22.118144 15.68714,15.892245 21.98494,-3.913141 -10.26683,19.830338 z"
       transform="translate(35.359356,16.152422)" /></g></svg>
